<svg xmlns="http://www.w3.org/2000/svg" xmlns:xlink="http://www.w3.org/1999/xlink" preserveAspectRatio="xMidYMid" width="130" height="24" viewBox="0 0 130 24">
  <defs>
    <style>
      .cls-1 {
        fill: #fff;
      }

      .cls-1, .cls-2 {
        fill-rule: evenodd;
      }

      .cls-2 {
        fill: #ff7555;
      }
    </style>
  </defs>
  <g>
    <path d="M128.216,5.719 C127.280,5.719 126.536,4.927 126.536,4.039 C126.536,3.151 127.280,2.382 128.216,2.382 C129.128,2.382 129.872,3.151 129.872,4.039 C129.872,4.927 129.128,5.719 128.216,5.719 ZM120.753,12.679 C120.753,10.999 119.673,9.799 118.137,9.799 C116.601,9.799 115.328,10.831 115.136,12.151 L115.136,20.000 L112.208,20.000 L112.208,7.591 L115.136,7.591 L115.136,9.247 C115.904,8.095 117.345,7.303 118.977,7.303 C121.689,7.303 123.585,9.295 123.585,12.103 L123.585,20.000 L120.753,20.000 L120.753,12.679 ZM104.473,17.696 C105.625,17.696 106.993,17.168 107.689,16.448 L109.537,18.368 C108.457,19.520 106.297,20.288 104.497,20.288 C100.944,20.288 98.016,17.576 98.016,13.759 C98.016,10.039 100.800,7.303 104.329,7.303 C108.169,7.303 110.401,10.207 110.401,14.792 L101.040,14.792 C101.400,16.496 102.696,17.696 104.473,17.696 ZM107.593,12.559 C107.257,10.999 106.201,9.895 104.449,9.895 C102.816,9.895 101.496,10.927 101.064,12.559 L107.593,12.559 ZM90.320,20.000 L84.992,7.591 L88.088,7.591 L91.689,16.616 L95.217,7.591 L98.337,7.591 L93.081,20.000 L90.320,20.000 ZM78.433,17.696 C79.585,17.696 80.953,17.168 81.649,16.448 L83.497,18.368 C82.417,19.520 80.257,20.288 78.457,20.288 C74.904,20.288 71.976,17.576 71.976,13.759 C71.976,10.039 74.760,7.303 78.289,7.303 C82.129,7.303 84.361,10.207 84.361,14.792 L75.000,14.792 C75.360,16.496 76.656,17.696 78.433,17.696 ZM81.553,12.559 C81.217,10.999 80.161,9.895 78.409,9.895 C76.776,9.895 75.456,10.927 75.024,12.559 L81.553,12.559 ZM64.129,20.288 C60.528,20.288 57.480,17.312 57.480,13.783 C57.480,10.255 60.528,7.303 64.129,7.303 C67.729,7.303 70.777,10.255 70.777,13.783 C70.777,17.312 67.729,20.288 64.129,20.288 ZM64.129,9.799 C62.064,9.799 60.336,11.623 60.336,13.783 C60.336,15.968 62.064,17.792 64.129,17.792 C66.169,17.792 67.897,15.968 67.897,13.783 C67.897,11.623 66.169,9.799 64.129,9.799 ZM48.793,20.288 C44.064,20.288 40.080,16.376 40.080,11.743 C40.080,7.111 44.064,3.223 48.793,3.223 C51.193,3.223 53.761,4.231 55.345,5.887 L53.209,7.879 C52.177,6.679 50.401,5.959 48.793,5.959 C45.721,5.959 43.128,8.599 43.128,11.743 C43.128,14.912 45.721,17.552 48.793,17.552 C50.041,17.552 51.385,17.120 52.417,16.376 L52.417,13.375 L48.313,13.375 L48.313,10.927 L55.345,10.927 L55.345,17.600 C53.761,19.256 51.193,20.288 48.793,20.288 ZM129.656,20.000 L126.728,20.000 L126.728,7.591 L129.656,7.591 L129.656,20.000 Z" class="cls-1"/>
    <path d="M11.999,24.000 C11.999,17.372 17.372,12.000 24.000,12.000 C24.000,18.627 18.627,24.000 11.999,24.000 ZM-0.001,12.000 L-0.001,-0.001 C6.626,-0.001 11.999,5.372 11.999,12.000 L11.999,24.000 C5.372,24.000 -0.001,18.627 -0.001,12.000 ZM11.999,-0.001 C18.627,-0.001 24.000,5.372 24.000,12.000 C17.372,12.000 11.999,6.627 11.999,-0.001 Z" class="cls-2"/>
  </g>
</svg>
