<?xml version="1.0" encoding="utf-8"?>
<!-- Generator: Adobe Illustrator 18.0.0, SVG Export Plug-In . SVG Version: 6.00 Build 0)  -->
<!DOCTYPE svg PUBLIC "-//W3C//DTD SVG 1.1//EN" "http://www.w3.org/Graphics/SVG/1.1/DTD/svg11.dtd">
<svg version="1.1" id="Layer_1" xmlns="http://www.w3.org/2000/svg" xmlns:xlink="http://www.w3.org/1999/xlink" x="0px" y="0px"
	 viewBox="0 130.8 612 530.5" enable-background="new 0 130.8 612 530.5" xml:space="preserve">
<path id="Shape" fill="#EFEFEF" d="M10.2,243v204c0,56.3,45.7,102,102,102h20.4c11.2,0,20.4,9.1,20.4,20.4v81.6l147.9-98.6
	c3.3-2.3,7.3-3.5,11.2-3.5h187.7c56.3,0,102-45.7,102-102V243c0-56.3-45.7-102-102-102H112.2C55.8,141,10.2,186.7,10.2,243z"/>
<path id="Shape_1_" fill="#CAD9FC" d="M270.3,552.5L153,630.6v20.4l147.9-98.6c3.3-2.3,7.3-3.5,11.2-3.5h-30.6
	C277.6,549,273.6,550.2,270.3,552.5z"/>
<path id="Shape_2_" fill="#E8E8E8" d="M499.8,141h-30.6c56.3,0,102,45.7,102,102v204c0,27-10.8,53-29.9,72.1S496.2,549,469.2,549
	h30.6c56.3,0,102-45.7,102-102V243C601.8,186.7,556.2,141,499.8,141z"/>
<path id="Shape_3_" fill="#313131" d="M51,273.6c-5.6,0-10.2-4.5-10.2-10.2V243c0-5.6,4.5-10.2,10.2-10.2s10.2,4.5,10.2,10.2v20.4
	C61.2,269.1,56.7,273.6,51,273.6z"/>
<path id="Shape_4_" fill="#313131" d="M51,467.4c-5.6,0-10.2-4.5-10.2-10.2v-153c0-5.6,4.5-10.2,10.2-10.2s10.2,4.5,10.2,10.2v153
	C61.2,462.8,56.7,467.4,51,467.4z"/>
<circle id="Oval" fill="#EFEFEF" cx="224.4" cy="345" r="40.8"/>
<path id="Shape_5_" fill="#FFFFFF" d="M224.4,304.2c-5.3,0-10.4,1.1-15.3,3.1c15.4,6.2,25.5,21.2,25.5,37.8s-10,31.6-25.5,37.8
	c15.3,6.2,32.8,2.6,44.3-9.1c11.6-11.7,15.1-29.3,8.6-44.5C255.8,314.1,240.9,304.2,224.4,304.2L224.4,304.2z"/>
<circle id="Oval_1_" fill="#EFEFEF" cx="387.6" cy="243" r="40.8"/>
<path id="Shape_6_" fill="#FFFFFF" d="M387.6,202.2c-5.3,0-10.4,1.1-15.3,3.1c15.4,6.2,25.5,21.2,25.5,37.8
	c0,16.6-10,31.6-25.5,37.8c15.3,6.2,32.8,2.6,44.3-9.1c11.6-11.7,15.1-29.3,8.6-44.5S404,202.1,387.6,202.2z"/>
<circle id="Oval_2_" fill="#EFEFEF" cx="387.6" cy="447" r="40.8"/>
<path id="Shape_7_" fill="#FFFFFF" d="M387.6,406.2c-5.3,0-10.4,1.1-15.3,3.1c15.4,6.2,25.5,21.2,25.5,37.8s-10,31.6-25.5,37.8
	c15.3,6.2,32.8,2.6,44.3-9.1c11.6-11.7,15.1-29.3,8.6-44.5S404,406.2,387.6,406.2L387.6,406.2z"/>
<g id="color" transform="translate(1 1)">
	<path id="Shape_8_" fill="#FFFFFF" d="M111.2,548h20.4c11.2,0,20.4,9.1,20.4,20.4v81.6l30.6-20.4v-61.2c0-11.2-9.1-20.4-20.4-20.4
		h-20.4c-56.3,0-102-45.7-102-102V242c0-56.3,45.7-102,102-102h-30.6C54.8,140,9.2,185.7,9.2,242v204C9.2,502.3,54.8,548,111.2,548z
		"/>
</g>
<g>
	<path id="Shape_9_" fill="#313131" d="M10.4,416.4c-5.6,0-10.3-4.5-10.3-10.2S4.7,396,10.3,396h0.1c3.6,0,7.1,1.9,8.8,5.1
		c1.8,3.1,1.8,7.1,0,10.2S14.1,416.4,10.4,416.4z"/>
	<path id="Shape_10_" fill="#313131" d="M499.8,130.8H112.2C50.3,130.9,0.1,181.1,0,243v122.4c0,5.6,4.5,10.2,10.2,10.2
		s10.2-4.5,10.2-10.2V243c0.1-50.7,41.1-91.7,91.8-91.8h387.6c50.7,0.1,91.7,41.1,91.8,91.8v204c-0.1,50.7-41.1,91.7-91.8,91.8
		H312.1c-6.1,0-12,1.8-17,5.1l-132,88.1v-62.5c0-16.9-13.7-30.6-30.6-30.6h-20.3c-50.7-0.1-91.7-41.1-91.8-91.8
		c0-5.6-4.5-10.2-10.2-10.2S0,441.4,0,447C0.1,509,50.3,559.2,112.2,559.3h20.4c5.6,0,10.2,4.5,10.2,10.2v81.6c0,3.7,2,7.2,5.4,9
		s7.3,1.6,10.5-0.5L306.6,561c1.7-1.1,3.6-1.7,5.6-1.7h187.7C561.8,559.2,612,509,612.1,447V243
		C611.9,181.1,561.7,130.9,499.8,130.8z"/>
	<path id="Shape_11_" fill="#313131" d="M224.4,294c-23.3-0.1-43.6,15.7-49.5,38.1s4.3,46.1,24.6,57.5c20.3,11.2,45.8,7.4,61.8-9.6
		l78.8,49.1c-2.2,5.6-3.3,11.7-3.3,17.7c-0.1,24.6,17.2,45.9,41.4,50.7s48.3-8.2,57.5-31.2c9.2-22.8,1-49-19.8-62.4
		c-20.8-13.4-47.9-10-64.9,7.8l-78.8-49.1c4.5-11.4,4.5-24.1,0-35.5l78.8-49.1c18.4,19.6,48.8,22.1,70,5.7s26.8-46.4,12.6-69.2
		s-43.5-31.2-67.7-19.2s-35.4,40.2-25.8,65.4l-78.7,49.2C251.7,299.8,238.3,294,224.4,294L224.4,294z M387.6,416.4
		c16.9,0,30.6,13.7,30.6,30.6s-13.7,30.6-30.6,30.6S357,463.9,357,447C357,430.1,370.7,416.4,387.6,416.4z M387.6,212.4
		c16.9,0,30.6,13.7,30.6,30.6s-13.7,30.6-30.6,30.6S357,259.9,357,243C357,226.1,370.7,212.4,387.6,212.4z M224.4,375.6
		c-12.4,0-23.5-7.4-28.3-18.9s-2.2-24.6,6.6-33.3s21.9-11.4,33.3-6.6c11.5,4.8,18.9,15.9,18.9,28.3
		C255,361.9,241.3,375.6,224.4,375.6z"/>
</g>
</svg>
