<svg xmlns="http://www.w3.org/2000/svg" xmlns:xlink="http://www.w3.org/1999/xlink" preserveAspectRatio="xMidYMid" width="50" height="50" viewBox="0 0 50 50">
  <defs>
    <style>
      .cls-1 {
        fill: #313131;
        fill-rule: evenodd;
      }
    </style>
  </defs>
  <path d="M49.079,27.156 C39.706,38.355 40.289,37.668 40.222,37.734 C38.571,39.339 36.394,40.223 34.091,40.223 L21.108,40.223 C20.345,40.223 19.623,40.515 19.074,41.045 L18.056,42.027 C18.409,43.062 18.165,44.252 17.360,45.056 L12.626,49.719 C12.242,50.097 11.626,50.093 11.247,49.711 L0.282,38.666 C-0.097,38.284 -0.096,37.669 0.283,37.289 L4.929,32.631 C5.634,31.926 6.613,31.646 7.541,31.821 C9.745,27.750 13.851,25.579 18.554,25.579 C20.251,25.579 21.895,25.907 23.445,26.555 L34.335,26.555 C35.534,26.555 36.644,27.113 37.371,28.009 L43.134,22.088 C44.528,20.472 46.979,20.274 48.615,21.652 C50.261,23.043 50.469,25.512 49.079,27.156 ZM7.521,33.873 C7.128,33.630 6.633,33.688 6.311,34.010 L2.352,37.980 L11.948,47.646 L15.985,43.670 C16.349,43.306 16.370,42.685 15.979,42.294 C7.204,33.534 7.690,33.976 7.521,33.873 ZM47.355,23.144 C46.533,22.451 45.298,22.555 44.602,23.376 C44.568,23.417 43.782,24.221 38.207,29.950 C38.229,30.119 38.241,30.289 38.241,30.460 C38.241,32.614 36.489,34.366 34.335,34.366 L26.367,34.366 C25.828,34.366 25.390,33.929 25.390,33.389 C25.390,32.850 25.828,32.413 26.367,32.413 L34.335,32.413 C35.412,32.413 36.288,31.537 36.288,30.460 C36.288,29.371 35.394,28.508 34.335,28.508 L23.245,28.508 C23.110,28.508 22.977,28.480 22.853,28.426 C21.496,27.832 20.050,27.531 18.554,27.531 C14.380,27.531 11.025,29.439 9.237,32.792 L16.888,40.440 L17.718,39.640 C18.631,38.757 19.835,38.271 21.108,38.271 L34.091,38.271 C35.866,38.271 37.545,37.595 38.825,36.368 L47.584,25.900 C48.282,25.074 48.178,23.839 47.355,23.144 ZM21.602,33.913 C21.221,33.531 21.221,32.913 21.602,32.531 C21.984,32.150 22.602,32.150 22.984,32.531 C23.365,32.913 23.365,33.531 22.984,33.913 C22.602,34.293 21.984,34.293 21.602,33.913 ZM29.101,21.479 C23.178,21.479 18.359,16.661 18.359,10.739 C18.359,4.818 23.178,-0.000 29.101,-0.000 C35.025,-0.000 39.844,4.818 39.844,10.739 C39.844,16.661 35.025,21.479 29.101,21.479 ZM29.101,1.953 C24.255,1.953 20.312,5.894 20.312,10.739 C20.312,15.584 24.255,19.526 29.101,19.526 C33.948,19.526 37.891,15.584 37.891,10.739 C37.891,5.894 33.948,1.953 29.101,1.953 ZM28.906,9.763 C30.522,9.763 31.836,11.077 31.836,12.692 C31.836,13.964 31.019,15.050 29.883,15.453 L29.883,16.597 C29.883,17.136 29.445,17.573 28.906,17.573 C28.367,17.573 27.930,17.136 27.930,16.597 L27.930,15.458 C27.279,15.239 26.665,14.807 26.143,14.186 C25.796,13.773 25.849,13.158 26.262,12.811 C26.675,12.464 27.291,12.517 27.638,12.930 C28.038,13.406 28.489,13.668 28.906,13.668 C29.444,13.668 29.883,13.230 29.883,12.692 C29.883,12.154 29.444,11.716 28.906,11.716 C27.290,11.716 25.976,10.402 25.976,8.787 C25.976,7.514 26.793,6.429 27.930,6.026 L27.930,4.882 C27.930,4.342 28.367,3.905 28.906,3.905 C29.445,3.905 29.883,4.342 29.883,4.882 L29.883,6.019 C30.329,6.167 30.825,6.438 31.321,6.918 C31.708,7.293 31.718,7.911 31.343,8.298 C30.968,8.685 30.350,8.696 29.962,8.321 C29.617,7.987 29.252,7.810 28.906,7.810 C28.368,7.810 27.930,8.249 27.930,8.787 C27.930,9.325 28.368,9.763 28.906,9.763 Z" class="cls-1"/>
</svg>
