<svg xmlns="http://www.w3.org/2000/svg" xmlns:xlink="http://www.w3.org/1999/xlink" preserveAspectRatio="xMidYMid" width="50" height="50" viewBox="0 0 50 50">
  <defs>
    <style>
      .cls-1 {
        fill: #313131;
        fill-rule: evenodd;
      }
    </style>
  </defs>
  <path d="M45.987,34.236 C46.038,34.563 45.952,34.897 45.750,35.159 L40.560,41.868 C40.165,42.384 39.431,42.487 38.911,42.099 C37.756,41.246 36.627,40.324 35.548,39.352 L29.728,45.203 L29.940,46.503 C29.970,46.681 29.918,46.864 29.801,47.001 C29.682,47.137 29.510,47.214 29.330,47.211 L28.171,47.189 L28.255,48.253 C28.270,48.434 28.203,48.612 28.073,48.739 C27.944,48.866 27.765,48.927 27.585,48.908 L26.193,48.757 L25.133,49.822 C24.990,49.966 24.784,50.029 24.585,49.989 L22.468,49.563 C22.228,49.515 22.040,49.326 21.992,49.084 L21.569,46.956 C21.529,46.756 21.591,46.550 21.735,46.405 L22.738,45.396 L5.607,45.396 C5.272,45.396 5.000,45.124 5.000,44.787 L5.000,39.766 C4.997,39.342 5.042,38.919 5.135,38.505 C5.152,38.431 5.171,38.358 5.191,38.285 C5.702,36.414 7.137,34.930 9.029,34.313 L15.934,32.062 L15.934,28.825 C13.497,27.376 11.796,24.945 11.264,22.149 L10.850,20.719 C9.283,20.227 8.365,18.594 8.755,16.991 C8.957,16.143 9.586,15.464 10.413,15.202 L10.413,10.610 C10.413,4.750 15.138,-0.000 20.967,-0.000 C26.795,-0.000 31.521,4.750 31.521,10.610 L31.521,15.203 C32.346,15.466 32.973,16.144 33.174,16.991 C33.564,18.594 32.647,20.226 31.079,20.718 L30.665,22.149 C30.133,24.945 28.433,27.376 25.996,28.825 L25.996,32.066 L30.077,33.434 C29.853,33.143 29.633,32.850 29.417,32.555 C29.031,32.032 29.134,31.294 29.647,30.897 L36.330,25.671 C36.588,25.470 36.916,25.383 37.239,25.432 C37.561,25.480 37.850,25.658 38.038,25.926 C38.626,26.763 40.143,28.858 41.516,30.239 C42.810,31.540 44.555,32.796 45.480,33.430 L45.480,33.430 C45.752,33.616 45.936,33.908 45.987,34.236 ZM30.308,10.610 C30.308,5.423 26.126,1.219 20.967,1.219 C15.808,1.219 11.626,5.423 11.626,10.610 L11.626,15.329 C11.824,15.347 12.022,15.283 12.172,15.152 C12.322,15.020 12.413,14.833 12.423,14.633 L12.587,11.003 C12.594,10.840 12.666,10.688 12.785,10.579 C12.905,10.469 13.063,10.413 13.224,10.421 C14.937,10.471 16.652,10.383 18.350,10.155 C20.946,9.812 24.582,8.984 27.166,6.992 C27.338,6.854 27.570,6.820 27.774,6.903 C27.977,6.986 28.120,7.174 28.147,7.393 C28.174,7.612 28.081,7.829 27.904,7.959 C26.625,8.945 25.049,9.741 23.193,10.341 C24.250,11.302 26.592,12.990 30.308,13.394 L30.308,10.610 ZM30.308,14.621 C25.402,14.134 22.677,11.625 21.848,10.728 C20.741,11.008 19.618,11.221 18.485,11.367 C18.404,11.377 18.324,11.387 18.245,11.398 C22.743,14.685 28.483,15.073 30.308,15.109 L30.308,14.621 ZM29.478,21.894 C29.482,21.875 29.487,21.856 29.492,21.837 L29.991,20.111 C30.034,19.856 30.231,19.655 30.485,19.610 C31.001,19.518 31.456,19.216 31.742,18.774 C32.028,18.333 32.120,17.792 31.996,17.281 C31.877,16.789 31.482,16.414 30.987,16.323 C30.971,16.326 30.954,16.327 30.937,16.328 C30.848,16.331 28.709,16.406 25.835,15.843 C23.229,15.332 19.519,14.176 16.505,11.568 C15.317,11.654 14.354,11.663 13.772,11.656 L13.635,14.689 C13.605,15.346 13.247,15.944 12.684,16.279 C12.120,16.613 11.426,16.640 10.839,16.349 C10.390,16.468 10.042,16.826 9.934,17.281 C9.809,17.792 9.901,18.333 10.187,18.774 C10.474,19.216 10.928,19.518 11.444,19.610 C11.698,19.655 11.896,19.856 11.938,20.111 L12.437,21.837 C12.443,21.856 12.447,21.875 12.451,21.894 C13.222,26.011 16.798,28.992 20.965,28.992 C25.131,28.992 28.707,26.011 29.478,21.894 ZM17.147,29.441 L17.147,32.141 C19.559,33.312 22.371,33.312 24.783,32.141 L24.783,29.441 C23.574,29.952 22.276,30.214 20.965,30.214 C19.654,30.214 18.356,29.952 17.147,29.441 ZM25.451,33.169 C22.627,34.595 19.299,34.595 16.475,33.168 L9.403,35.473 C7.900,35.963 6.763,37.135 6.361,38.608 C6.345,38.666 6.330,38.724 6.317,38.783 C6.245,39.105 6.210,39.435 6.213,39.766 L6.213,44.177 L23.951,44.178 L32.150,35.936 C31.934,35.693 31.720,35.448 31.509,35.201 L25.451,33.169 ZM40.659,31.102 C39.278,29.713 37.816,27.721 37.059,26.646 L30.406,31.849 C31.347,33.136 32.357,34.369 33.433,35.543 C33.654,35.784 33.646,36.156 33.417,36.387 L22.822,47.038 L23.102,48.448 L24.505,48.729 L25.540,47.688 C25.670,47.558 25.851,47.494 26.034,47.513 L26.987,47.617 L26.908,46.616 C26.895,46.444 26.954,46.275 27.071,46.150 C27.188,46.024 27.353,45.954 27.524,45.958 L28.625,45.978 L28.480,45.091 C28.448,44.898 28.512,44.700 28.650,44.561 L35.100,38.078 C35.329,37.847 35.700,37.839 35.939,38.061 C37.108,39.142 38.334,40.158 39.613,41.104 L44.780,34.426 C43.815,33.764 42.014,32.463 40.659,31.102 ZM36.445,34.776 L34.582,31.201 C34.446,30.940 34.515,30.618 34.746,30.437 L36.271,29.245 C36.524,29.047 36.888,29.082 37.100,29.325 L38.218,30.610 C39.035,31.548 39.912,32.430 40.846,33.251 L42.123,34.375 C42.365,34.588 42.400,34.953 42.202,35.208 L41.017,36.741 C40.837,36.974 40.517,37.043 40.257,36.907 L36.700,35.034 C36.591,34.976 36.502,34.886 36.445,34.776 ZM40.370,35.589 L40.893,34.914 L40.047,34.170 C39.073,33.313 38.157,32.392 37.305,31.413 L36.564,30.562 L35.892,31.087 L37.431,34.042 L40.370,35.589 Z" class="cls-1"/>
</svg>
