<?xml version="1.0" encoding="utf-8"?>
<!-- Generator: Adobe Illustrator 18.0.0, SVG Export Plug-In . SVG Version: 6.00 Build 0)  -->
<!DOCTYPE svg PUBLIC "-//W3C//DTD SVG 1.1//EN" "http://www.w3.org/Graphics/SVG/1.1/DTD/svg11.dtd">
<svg version="1.1" id="Objects" xmlns="http://www.w3.org/2000/svg" xmlns:xlink="http://www.w3.org/1999/xlink" x="0px" y="0px"
	 viewBox="0 0 57.8 58.2" enable-background="new 0 0 57.8 58.2" xml:space="preserve">
<g>
	<g id="XMLID_4_">
		<g>
			<rect x="50.1" y="50.4" fill="#FFFFFF" width="2.1" height="2.1"/>
			<rect x="50.1" y="48.3" fill="#FFFFFF" width="2.1" height="2.1"/>
			<rect x="50.1" y="46.1" fill="#FFFFFF" width="2.1" height="2.1"/>
			<rect x="50.1" y="44" fill="#FFFFFF" width="2.1" height="2.1"/>
			<rect x="50.1" y="41.9" fill="#FFFFFF" width="2.1" height="2.1"/>
			<rect x="50.1" y="39.8" fill="#FFFFFF" width="2.1" height="2.1"/>
			<rect x="50.1" y="37.7" fill="#FFFFFF" width="2.1" height="2.1"/>
			<rect x="50.1" y="35.5" fill="#FFFFFF" width="2.1" height="2.1"/>
			<rect x="50.1" y="33.4" fill="#FFFFFF" width="2.1" height="2.1"/>
			<rect x="50.1" y="31.3" fill="#FFFFFF" width="2.1" height="2.1"/>
			<rect x="50.1" y="29.2" fill="#FFFFFF" width="2.1" height="2.1"/>
			<rect x="50.1" y="27.1" fill="#FFFFFF" width="2.1" height="2.1"/>
			<rect x="50.1" y="24.9" fill="#FFFFFF" width="2.1" height="2.1"/>
			<rect x="50.1" y="22.8" fill="#FFFFFF" width="2.1" height="2.1"/>
			<rect x="50.1" y="20.7" fill="#FFFFFF" width="2.1" height="2.1"/>
			<rect x="50.1" y="18.6" fill="#FFFFFF" width="2.1" height="2.1"/>
			<rect x="50.1" y="16.5" fill="#FFFFFF" width="2.1" height="2.1"/>
			<rect x="50.1" y="14.3" fill="#FFFFFF" width="2.1" height="2.1"/>
			<rect x="50.1" y="12.2" fill="#FFFFFF" width="2.1" height="2.1"/>
			<rect x="50.1" y="10.1" fill="#FFFFFF" width="2.1" height="2.1"/>
			<rect x="50.1" y="8" fill="#FFFFFF" width="2.1" height="2.1"/>
			<rect x="50.1" y="5.9" fill="#FFFFFF" width="2.1" height="2.1"/>
			<rect x="48" y="50.4" fill="#FFFFFF" width="2.1" height="2.1"/>
			<rect x="48" y="48.3" width="2.1" height="2.1"/>
			<rect x="48" y="46.1" width="2.1" height="2.1"/>
			<rect x="48" y="44" width="2.1" height="2.1"/>
			<rect x="48" y="41.9" fill="#FFFFFF" width="2.1" height="2.1"/>
			<rect x="48" y="39.8" width="2.1" height="2.1"/>
			<rect x="48" y="37.7" width="2.1" height="2.1"/>
			<rect x="48" y="35.5" width="2.1" height="2.1"/>
			<rect x="48" y="33.4" width="2.1" height="2.1"/>
			<rect x="48" y="31.3" fill="#FFFFFF" width="2.1" height="2.1"/>
			<rect x="48" y="29.2" width="2.1" height="2.1"/>
			<rect x="48" y="27.1" width="2.1" height="2.1"/>
			<rect x="48" y="24.9" fill="#FFFFFF" width="2.1" height="2.1"/>
			<rect x="48" y="22.8" width="2.1" height="2.1"/>
			<rect x="48" y="20.7" width="2.1" height="2.1"/>
			<rect x="48" y="18.6" fill="#FFFFFF" width="2.1" height="2.1"/>
			<rect x="48" y="16.5" width="2.1" height="2.1"/>
			<rect x="48" y="14.3" width="2.1" height="2.1"/>
			<rect x="48" y="12.2" width="2.1" height="2.1"/>
			<rect x="48" y="10.1" width="2.1" height="2.1"/>
			<rect x="48" y="8" width="2.1" height="2.1"/>
			<rect x="48" y="5.9" fill="#FFFFFF" width="2.1" height="2.1"/>
			<rect x="45.9" y="50.4" fill="#FFFFFF" width="2.1" height="2.1"/>
			<rect x="45.9" y="48.3" fill="#FFFFFF" width="2.1" height="2.1"/>
			<rect x="45.9" y="46.1" fill="#FFFFFF" width="2.1" height="2.1"/>
			<rect x="45.9" y="44" fill="#FFFFFF" width="2.1" height="2.1"/>
			<rect x="45.9" y="41.9" width="2.1" height="2.1"/>
			<rect x="45.9" y="39.8" fill="#FFFFFF" width="2.1" height="2.1"/>
			<rect x="45.9" y="37.7" fill="#FFFFFF" width="2.1" height="2.1"/>
			<rect x="45.9" y="35.5" fill="#FFFFFF" width="2.1" height="2.1"/>
			<rect x="45.9" y="33.4" width="2.1" height="2.1"/>
			<rect x="45.9" y="31.3" fill="#FFFFFF" width="2.1" height="2.1"/>
			<rect x="45.9" y="29.2" fill="#FFFFFF" width="2.1" height="2.1"/>
			<rect x="45.9" y="27.1" width="2.1" height="2.1"/>
			<rect x="45.9" y="24.9" fill="#FFFFFF" width="2.1" height="2.1"/>
			<rect x="45.9" y="22.8" width="2.1" height="2.1"/>
			<rect x="45.9" y="20.7" fill="#FFFFFF" width="2.1" height="2.1"/>
			<rect x="45.9" y="18.6" fill="#FFFFFF" width="2.1" height="2.1"/>
			<rect x="45.9" y="16.5" width="2.1" height="2.1"/>
			<rect x="45.9" y="14.3" fill="#FFFFFF" width="2.1" height="2.1"/>
			<rect x="45.9" y="12.2" fill="#FFFFFF" width="2.1" height="2.1"/>
			<rect x="45.9" y="10.1" fill="#FFFFFF" width="2.1" height="2.1"/>
			<rect x="45.9" y="8" width="2.1" height="2.1"/>
			<rect x="45.9" y="5.9" fill="#FFFFFF" width="2.1" height="2.1"/>
			<rect x="43.8" y="50.4" fill="#FFFFFF" width="2.1" height="2.1"/>
			<rect x="43.8" y="48.3" width="2.1" height="2.1"/>
			<rect x="43.8" y="46.1" fill="#FFFFFF" width="2.1" height="2.1"/>
			<rect x="43.8" y="44" width="2.1" height="2.1"/>
			<rect x="43.8" y="41.9" fill="#FFFFFF" width="2.1" height="2.1"/>
			<rect x="43.8" y="39.8" width="2.1" height="2.1"/>
			<rect x="43.8" y="37.7" fill="#FFFFFF" width="2.1" height="2.1"/>
			<rect x="43.8" y="35.5" fill="#FFFFFF" width="2.1" height="2.1"/>
			<rect x="43.8" y="33.4" width="2.1" height="2.1"/>
			<rect x="43.8" y="31.3" width="2.1" height="2.1"/>
			<rect x="43.8" y="29.2" width="2.1" height="2.1"/>
			<rect x="43.8" y="27.1" width="2.1" height="2.1"/>
			<rect x="43.8" y="24.9" width="2.1" height="2.1"/>
			<rect x="43.8" y="22.8" width="2.1" height="2.1"/>
			<rect x="43.8" y="20.7" fill="#FFFFFF" width="2.1" height="2.1"/>
			<rect x="43.8" y="18.6" fill="#FFFFFF" width="2.1" height="2.1"/>
			<rect x="43.8" y="16.5" width="2.1" height="2.1"/>
			<rect x="43.8" y="14.3" fill="#FFFFFF" width="2.1" height="2.1"/>
			<rect x="43.8" y="12.2" width="2.1" height="2.1"/>
			<rect x="43.8" y="10.1" fill="#FFFFFF" width="2.1" height="2.1"/>
			<rect x="43.8" y="8" width="2.1" height="2.1"/>
			<rect x="43.8" y="5.9" fill="#FFFFFF" width="2.1" height="2.1"/>
			<rect x="41.7" y="50.4" fill="#FFFFFF" width="2.1" height="2.1"/>
			<rect x="41.7" y="48.3" width="2.1" height="2.1"/>
			<rect x="41.7" y="46.1" fill="#FFFFFF" width="2.1" height="2.1"/>
			<rect x="41.7" y="44" fill="#FFFFFF" width="2.1" height="2.1"/>
			<rect x="41.7" y="41.9" fill="#FFFFFF" width="2.1" height="2.1"/>
			<rect x="41.7" y="39.8" fill="#FFFFFF" width="2.1" height="2.1"/>
			<rect x="41.7" y="37.7" fill="#FFFFFF" width="2.1" height="2.1"/>
			<rect x="41.7" y="35.5" fill="#FFFFFF" width="2.1" height="2.1"/>
			<rect x="41.7" y="33.4" fill="#FFFFFF" width="2.1" height="2.1"/>
			<rect x="41.7" y="31.3" fill="#FFFFFF" width="2.1" height="2.1"/>
			<rect x="41.7" y="29.2" fill="#FFFFFF" width="2.1" height="2.1"/>
			<rect x="41.7" y="27.1" fill="#FFFFFF" width="2.1" height="2.1"/>
			<rect x="41.7" y="24.9" fill="#FFFFFF" width="2.1" height="2.1"/>
			<rect x="41.7" y="22.8" width="2.1" height="2.1"/>
			<rect x="41.7" y="20.7" fill="#FFFFFF" width="2.1" height="2.1"/>
			<rect x="41.7" y="18.6" fill="#FFFFFF" width="2.1" height="2.1"/>
			<rect x="41.7" y="16.5" width="2.1" height="2.1"/>
			<rect x="41.7" y="14.3" fill="#FFFFFF" width="2.1" height="2.1"/>
			<rect x="41.7" y="12.2" fill="#FFFFFF" width="2.1" height="2.1"/>
			<rect x="41.7" y="10.1" fill="#FFFFFF" width="2.1" height="2.1"/>
			<rect x="41.7" y="8" width="2.1" height="2.1"/>
			<rect x="41.7" y="5.9" fill="#FFFFFF" width="2.1" height="2.1"/>
			<rect x="39.5" y="50.4" fill="#FFFFFF" width="2.1" height="2.1"/>
			<rect x="39.5" y="48.3" width="2.1" height="2.1"/>
			<rect x="39.5" y="46.1" fill="#FFFFFF" width="2.1" height="2.1"/>
			<rect x="39.5" y="44" width="2.1" height="2.1"/>
			<rect x="39.5" y="41.9" fill="#FFFFFF" width="2.1" height="2.1"/>
			<rect x="39.5" y="39.8" fill="#FFFFFF" width="2.1" height="2.1"/>
			<rect x="39.5" y="37.7" fill="#FFFFFF" width="2.1" height="2.1"/>
			<rect x="39.5" y="35.5" fill="#FFFFFF" width="2.1" height="2.1"/>
			<rect x="39.5" y="33.4" fill="#FFFFFF" width="2.1" height="2.1"/>
			<rect x="39.5" y="31.3" fill="#FFFFFF" width="2.1" height="2.1"/>
			<rect x="39.5" y="29.2" width="2.1" height="2.1"/>
			<rect x="39.5" y="27.1" width="2.1" height="2.1"/>
			<rect x="39.5" y="24.9" fill="#FFFFFF" width="2.1" height="2.1"/>
			<rect x="39.5" y="22.8" width="2.1" height="2.1"/>
			<rect x="39.5" y="20.7" width="2.1" height="2.1"/>
			<rect x="39.5" y="18.6" fill="#FFFFFF" width="2.1" height="2.1"/>
			<rect x="39.5" y="16.5" width="2.1" height="2.1"/>
			<rect x="39.5" y="14.3" width="2.1" height="2.1"/>
			<rect x="39.5" y="12.2" width="2.1" height="2.1"/>
			<rect x="39.5" y="10.1" width="2.1" height="2.1"/>
			<rect x="39.5" y="8" width="2.1" height="2.1"/>
			<rect x="39.5" y="5.9" fill="#FFFFFF" width="2.1" height="2.1"/>
			<rect x="37.4" y="50.4" fill="#FFFFFF" width="2.1" height="2.1"/>
			<rect x="37.4" y="48.3" width="2.1" height="2.1"/>
			<rect x="37.4" y="46.1" fill="#FFFFFF" width="2.1" height="2.1"/>
			<rect x="37.4" y="44" width="2.1" height="2.1"/>
			<rect x="37.4" y="41.9" fill="#FFFFFF" width="2.1" height="2.1"/>
			<rect x="37.4" y="39.8" fill="#FFFFFF" width="2.1" height="2.1"/>
			<rect x="37.4" y="37.7" width="2.1" height="2.1"/>
			<rect x="37.4" y="35.5" width="2.1" height="2.1"/>
			<rect x="37.4" y="33.4" fill="#FFFFFF" width="2.1" height="2.1"/>
			<rect x="37.4" y="31.3" fill="#FFFFFF" width="2.1" height="2.1"/>
			<rect x="37.4" y="29.2" width="2.1" height="2.1"/>
			<rect x="37.4" y="27.1" fill="#FFFFFF" width="2.1" height="2.1"/>
			<rect x="37.4" y="24.9" fill="#FFFFFF" width="2.1" height="2.1"/>
			<rect x="37.4" y="22.8" fill="#FFFFFF" width="2.1" height="2.1"/>
			<rect x="37.4" y="20.7" fill="#FFFFFF" width="2.1" height="2.1"/>
			<rect x="37.4" y="18.6" fill="#FFFFFF" width="2.1" height="2.1"/>
			<rect x="37.4" y="16.5" fill="#FFFFFF" width="2.1" height="2.1"/>
			<rect x="37.4" y="14.3" fill="#FFFFFF" width="2.1" height="2.1"/>
			<rect x="37.4" y="12.2" fill="#FFFFFF" width="2.1" height="2.1"/>
			<rect x="37.4" y="10.1" fill="#FFFFFF" width="2.1" height="2.1"/>
			<rect x="37.4" y="8" fill="#FFFFFF" width="2.1" height="2.1"/>
			<rect x="37.4" y="5.9" fill="#FFFFFF" width="2.1" height="2.1"/>
			<rect x="35.3" y="50.4" fill="#FFFFFF" width="2.1" height="2.1"/>
			<rect x="35.3" y="48.3" width="2.1" height="2.1"/>
			<rect x="35.3" y="46.1" fill="#FFFFFF" width="2.1" height="2.1"/>
			<rect x="35.3" y="44" width="2.1" height="2.1"/>
			<rect x="35.3" y="41.9" fill="#FFFFFF" width="2.1" height="2.1"/>
			<rect x="35.3" y="39.8" width="2.1" height="2.1"/>
			<rect x="35.3" y="37.7" width="2.1" height="2.1"/>
			<rect x="35.3" y="35.5" width="2.1" height="2.1"/>
			<rect x="35.3" y="33.4" width="2.1" height="2.1"/>
			<rect x="35.3" y="31.3" fill="#FFFFFF" width="2.1" height="2.1"/>
			<rect x="35.3" y="29.2" width="2.1" height="2.1"/>
			<rect x="35.3" y="27.1" width="2.1" height="2.1"/>
			<rect x="35.3" y="24.9" fill="#FFFFFF" width="2.1" height="2.1"/>
			<rect x="35.3" y="22.8" fill="#FFFFFF" width="2.1" height="2.1"/>
			<rect x="35.3" y="20.7" width="2.1" height="2.1"/>
			<rect x="35.3" y="18.6" fill="#FFFFFF" width="2.1" height="2.1"/>
			<rect x="35.3" y="16.5" fill="#FFFFFF" width="2.1" height="2.1"/>
			<rect x="35.3" y="14.3" width="2.1" height="2.1"/>
			<rect x="35.3" y="12.2" fill="#FFFFFF" width="2.1" height="2.1"/>
			<rect x="35.3" y="10.1" fill="#FFFFFF" width="2.1" height="2.1"/>
			<rect x="35.3" y="8" width="2.1" height="2.1"/>
			<rect x="35.3" y="5.9" fill="#FFFFFF" width="2.1" height="2.1"/>
			<rect x="33.2" y="50.4" fill="#FFFFFF" width="2.1" height="2.1"/>
			<rect x="33.2" y="48.3" fill="#FFFFFF" width="2.1" height="2.1"/>
			<rect x="33.2" y="46.1" fill="#FFFFFF" width="2.1" height="2.1"/>
			<rect x="33.2" y="44" width="2.1" height="2.1"/>
			<rect x="33.2" y="41.9" fill="#FFFFFF" width="2.1" height="2.1"/>
			<rect x="33.2" y="39.8" width="2.1" height="2.1"/>
			<rect x="33.2" y="37.7" fill="#FFFFFF" width="2.1" height="2.1"/>
			<rect x="33.2" y="35.5" fill="#FFFFFF" width="2.1" height="2.1"/>
			<rect x="33.2" y="33.4" width="2.1" height="2.1"/>
			<rect x="33.2" y="31.3" fill="#FFFFFF" width="2.1" height="2.1"/>
			<rect x="33.2" y="29.2" fill="#FFFFFF" width="2.1" height="2.1"/>
			<rect x="33.2" y="27.1" fill="#FFFFFF" width="2.1" height="2.1"/>
			<rect x="33.2" y="24.9" fill="#FFFFFF" width="2.1" height="2.1"/>
			<rect x="33.2" y="22.8" fill="#FFFFFF" width="2.1" height="2.1"/>
			<rect x="33.2" y="20.7" width="2.1" height="2.1"/>
			<rect x="33.2" y="18.6" width="2.1" height="2.1"/>
			<rect x="33.2" y="16.5" fill="#FFFFFF" width="2.1" height="2.1"/>
			<rect x="33.2" y="14.3" fill="#FFFFFF" width="2.1" height="2.1"/>
			<rect x="33.2" y="12.2" width="2.1" height="2.1"/>
			<rect x="33.2" y="10.1" width="2.1" height="2.1"/>
			<rect x="33.2" y="8" width="2.1" height="2.1"/>
			<rect x="33.2" y="5.9" fill="#FFFFFF" width="2.1" height="2.1"/>
			<rect x="31" y="50.4" fill="#FFFFFF" width="2.1" height="2.1"/>
			<rect x="31" y="48.3" width="2.1" height="2.1"/>
			<rect x="31" y="46.1" fill="#FFFFFF" width="2.1" height="2.1"/>
			<rect x="31" y="44" fill="#FFFFFF" width="2.1" height="2.1"/>
			<rect x="31" y="41.9" fill="#FFFFFF" width="2.1" height="2.1"/>
			<rect x="31" y="39.8" fill="#FFFFFF" width="2.1" height="2.1"/>
			<rect x="31" y="37.7" width="2.1" height="2.1"/>
			<rect x="31" y="35.5" fill="#FFFFFF" width="2.1" height="2.1"/>
			<rect x="31" y="33.4" fill="#FFFFFF" width="2.1" height="2.1"/>
			<rect x="31" y="31.3" width="2.1" height="2.1"/>
			<rect x="31" y="29.2" width="2.1" height="2.1"/>
			<rect x="31" y="27.1" width="2.1" height="2.1"/>
			<rect x="31" y="24.9" width="2.1" height="2.1"/>
			<rect x="31" y="22.8" fill="#FFFFFF" width="2.1" height="2.1"/>
			<rect x="31" y="20.7" width="2.1" height="2.1"/>
			<rect x="31" y="18.6" fill="#FFFFFF" width="2.1" height="2.1"/>
			<rect x="31" y="16.5" width="2.1" height="2.1"/>
			<rect x="31" y="14.3" fill="#FFFFFF" width="2.1" height="2.1"/>
			<rect x="31" y="12.2" width="2.1" height="2.1"/>
			<rect x="31" y="10.1" fill="#FFFFFF" width="2.1" height="2.1"/>
			<rect x="31" y="8" width="2.1" height="2.1"/>
			<rect x="31" y="5.9" fill="#FFFFFF" width="2.1" height="2.1"/>
			<rect x="28.9" y="50.4" fill="#FFFFFF" width="2.1" height="2.1"/>
			<rect x="28.9" y="48.3" fill="#FFFFFF" width="2.1" height="2.1"/>
			<rect x="28.9" y="46.1" width="2.1" height="2.1"/>
			<rect x="28.9" y="44" width="2.1" height="2.1"/>
			<rect x="28.9" y="41.9" width="2.1" height="2.1"/>
			<rect x="28.9" y="39.8" width="2.1" height="2.1"/>
			<rect x="28.9" y="37.7" width="2.1" height="2.1"/>
			<rect x="28.9" y="35.5" fill="#FFFFFF" width="2.1" height="2.1"/>
			<rect x="28.9" y="33.4" fill="#FFFFFF" width="2.1" height="2.1"/>
			<rect x="28.9" y="31.3" fill="#FFFFFF" width="2.1" height="2.1"/>
			<rect x="28.9" y="29.2" fill="#FFFFFF" width="2.1" height="2.1"/>
			<rect x="28.9" y="27.1" fill="#FFFFFF" width="2.1" height="2.1"/>
			<rect x="28.9" y="24.9" fill="#FFFFFF" width="2.1" height="2.1"/>
			<rect x="28.9" y="22.8" fill="#FFFFFF" width="2.1" height="2.1"/>
			<rect x="28.9" y="20.7" fill="#FFFFFF" width="2.1" height="2.1"/>
			<rect x="28.9" y="18.6" fill="#FFFFFF" width="2.1" height="2.1"/>
			<rect x="28.9" y="16.5" fill="#FFFFFF" width="2.1" height="2.1"/>
			<rect x="28.9" y="14.3" fill="#FFFFFF" width="2.1" height="2.1"/>
			<rect x="28.9" y="12.2" fill="#FFFFFF" width="2.1" height="2.1"/>
			<rect x="28.9" y="10.1" fill="#FFFFFF" width="2.1" height="2.1"/>
			<rect x="28.9" y="8" width="2.1" height="2.1"/>
			<rect x="28.9" y="5.9" fill="#FFFFFF" width="2.1" height="2.1"/>
			<rect x="26.8" y="50.4" fill="#FFFFFF" width="2.1" height="2.1"/>
			<rect x="26.8" y="48.3" width="2.1" height="2.1"/>
			<rect x="26.8" y="46.1" fill="#FFFFFF" width="2.1" height="2.1"/>
			<rect x="26.8" y="44" fill="#FFFFFF" width="2.1" height="2.1"/>
			<rect x="26.8" y="41.9" fill="#FFFFFF" width="2.1" height="2.1"/>
			<rect x="26.8" y="39.8" fill="#FFFFFF" width="2.1" height="2.1"/>
			<rect x="26.8" y="37.7" fill="#FFFFFF" width="2.1" height="2.1"/>
			<rect x="26.8" y="35.5" fill="#FFFFFF" width="2.1" height="2.1"/>
			<rect x="26.8" y="33.4" fill="#FFFFFF" width="2.1" height="2.1"/>
			<rect x="26.8" y="31.3" fill="#FFFFFF" width="2.1" height="2.1"/>
			<rect x="26.8" y="29.2" fill="#FFFFFF" width="2.1" height="2.1"/>
			<rect x="26.8" y="27.1" fill="#FFFFFF" width="2.1" height="2.1"/>
			<rect x="26.8" y="24.9" width="2.1" height="2.1"/>
			<rect x="26.8" y="22.8" fill="#FFFFFF" width="2.1" height="2.1"/>
			<rect x="26.8" y="20.7" fill="#FFFFFF" width="2.1" height="2.1"/>
			<rect x="26.8" y="18.6" width="2.1" height="2.1"/>
			<rect x="26.8" y="16.5" width="2.1" height="2.1"/>
			<rect x="26.8" y="14.3" fill="#FFFFFF" width="2.1" height="2.1"/>
			<rect x="26.8" y="12.2" fill="#FFFFFF" width="2.1" height="2.1"/>
			<rect x="26.8" y="10.1" width="2.1" height="2.1"/>
			<rect x="26.8" y="8" fill="#FFFFFF" width="2.1" height="2.1"/>
			<rect x="26.8" y="5.9" fill="#FFFFFF" width="2.1" height="2.1"/>
			<rect x="24.7" y="50.4" fill="#FFFFFF" width="2.1" height="2.1"/>
			<rect x="24.7" y="48.3" width="2.1" height="2.1"/>
			<rect x="24.7" y="46.1" fill="#FFFFFF" width="2.1" height="2.1"/>
			<rect x="24.7" y="44" fill="#FFFFFF" width="2.1" height="2.1"/>
			<rect x="24.7" y="41.9" fill="#FFFFFF" width="2.1" height="2.1"/>
			<rect x="24.7" y="39.8" width="2.1" height="2.1"/>
			<rect x="24.7" y="37.7" fill="#FFFFFF" width="2.1" height="2.1"/>
			<rect x="24.7" y="35.5" fill="#FFFFFF" width="2.1" height="2.1"/>
			<rect x="24.7" y="33.4" fill="#FFFFFF" width="2.1" height="2.1"/>
			<rect x="24.7" y="31.3" width="2.1" height="2.1"/>
			<rect x="24.7" y="29.2" fill="#FFFFFF" width="2.1" height="2.1"/>
			<rect x="24.7" y="27.1" width="2.1" height="2.1"/>
			<rect x="24.7" y="24.9" fill="#FFFFFF" width="2.1" height="2.1"/>
			<rect x="24.7" y="22.8" fill="#FFFFFF" width="2.1" height="2.1"/>
			<rect x="24.7" y="20.7" width="2.1" height="2.1"/>
			<rect x="24.7" y="18.6" width="2.1" height="2.1"/>
			<rect x="24.7" y="16.5" width="2.1" height="2.1"/>
			<rect x="24.7" y="14.3" width="2.1" height="2.1"/>
			<rect x="24.7" y="12.2" width="2.1" height="2.1"/>
			<rect x="24.7" y="10.1" width="2.1" height="2.1"/>
			<rect x="24.7" y="8" width="2.1" height="2.1"/>
			<rect x="24.7" y="5.9" fill="#FFFFFF" width="2.1" height="2.1"/>
			<rect x="22.6" y="50.4" fill="#FFFFFF" width="2.1" height="2.1"/>
			<rect x="22.6" y="48.3" fill="#FFFFFF" width="2.1" height="2.1"/>
			<rect x="22.6" y="46.1" fill="#FFFFFF" width="2.1" height="2.1"/>
			<rect x="22.6" y="44" fill="#FFFFFF" width="2.1" height="2.1"/>
			<rect x="22.6" y="41.9" fill="#FFFFFF" width="2.1" height="2.1"/>
			<rect x="22.6" y="39.8" width="2.1" height="2.1"/>
			<rect x="22.6" y="37.7" width="2.1" height="2.1"/>
			<rect x="22.6" y="35.5" width="2.1" height="2.1"/>
			<rect x="22.6" y="33.4" width="2.1" height="2.1"/>
			<rect x="22.6" y="31.3" fill="#FFFFFF" width="2.1" height="2.1"/>
			<rect x="22.6" y="29.2" width="2.1" height="2.1"/>
			<rect x="22.6" y="27.1" width="2.1" height="2.1"/>
			<rect x="22.6" y="24.9" width="2.1" height="2.1"/>
			<rect x="22.6" y="22.8" fill="#FFFFFF" width="2.1" height="2.1"/>
			<rect x="22.6" y="20.7" width="2.1" height="2.1"/>
			<rect x="22.6" y="18.6" fill="#FFFFFF" width="2.1" height="2.1"/>
			<rect x="22.6" y="16.5" width="2.1" height="2.1"/>
			<rect x="22.6" y="14.3" fill="#FFFFFF" width="2.1" height="2.1"/>
			<rect x="22.6" y="12.2" fill="#FFFFFF" width="2.1" height="2.1"/>
			<rect x="22.6" y="10.1" width="2.1" height="2.1"/>
			<rect x="22.6" y="8" fill="#FFFFFF" width="2.1" height="2.1"/>
			<rect x="22.6" y="5.9" fill="#FFFFFF" width="2.1" height="2.1"/>
			<rect x="20.4" y="50.4" fill="#FFFFFF" width="2.1" height="2.1"/>
			<rect x="20.4" y="48.3" width="2.1" height="2.1"/>
			<rect x="20.4" y="46.1" width="2.1" height="2.1"/>
			<rect x="20.4" y="44" width="2.1" height="2.1"/>
			<rect x="20.4" y="41.9" width="2.1" height="2.1"/>
			<rect x="20.4" y="39.8" width="2.1" height="2.1"/>
			<rect x="20.4" y="37.7" fill="#FFFFFF" width="2.1" height="2.1"/>
			<rect x="20.4" y="35.5" fill="#FFFFFF" width="2.1" height="2.1"/>
			<rect x="20.4" y="33.4" fill="#FFFFFF" width="2.1" height="2.1"/>
			<rect x="20.4" y="31.3" fill="#FFFFFF" width="2.1" height="2.1"/>
			<rect x="20.4" y="29.2" fill="#FFFFFF" width="2.1" height="2.1"/>
			<rect x="20.4" y="27.1" fill="#FFFFFF" width="2.1" height="2.1"/>
			<rect x="20.4" y="24.9" fill="#FFFFFF" width="2.1" height="2.1"/>
			<rect x="20.4" y="22.8" fill="#FFFFFF" width="2.1" height="2.1"/>
			<rect x="20.4" y="20.7" width="2.1" height="2.1"/>
			<rect x="20.4" y="18.6" fill="#FFFFFF" width="2.1" height="2.1"/>
			<rect x="20.4" y="16.5" fill="#FFFFFF" width="2.1" height="2.1"/>
			<rect x="20.4" y="14.3" width="2.1" height="2.1"/>
			<rect x="20.4" y="12.2" fill="#FFFFFF" width="2.1" height="2.1"/>
			<rect x="20.4" y="10.1" width="2.1" height="2.1"/>
			<rect x="20.4" y="8" fill="#FFFFFF" width="2.1" height="2.1"/>
			<rect x="20.4" y="5.9" fill="#FFFFFF" width="2.1" height="2.1"/>
			<rect x="18.3" y="50.4" fill="#FFFFFF" width="2.1" height="2.1"/>
			<rect x="18.3" y="48.3" fill="#FFFFFF" width="2.1" height="2.1"/>
			<rect x="18.3" y="46.1" fill="#FFFFFF" width="2.1" height="2.1"/>
			<rect x="18.3" y="44" fill="#FFFFFF" width="2.1" height="2.1"/>
			<rect x="18.3" y="41.9" fill="#FFFFFF" width="2.1" height="2.1"/>
			<rect x="18.3" y="39.8" fill="#FFFFFF" width="2.1" height="2.1"/>
			<rect x="18.3" y="37.7" fill="#FFFFFF" width="2.1" height="2.1"/>
			<rect x="18.3" y="35.5" width="2.1" height="2.1"/>
			<rect x="18.3" y="33.4" width="2.1" height="2.1"/>
			<rect x="18.3" y="31.3" width="2.1" height="2.1"/>
			<rect x="18.3" y="29.2" fill="#FFFFFF" width="2.1" height="2.1"/>
			<rect x="18.3" y="27.1" fill="#FFFFFF" width="2.1" height="2.1"/>
			<rect x="18.3" y="24.9" width="2.1" height="2.1"/>
			<rect x="18.3" y="22.8" width="2.1" height="2.1"/>
			<rect x="18.3" y="20.7" width="2.1" height="2.1"/>
			<rect x="18.3" y="18.6" fill="#FFFFFF" width="2.1" height="2.1"/>
			<rect x="18.3" y="16.5" fill="#FFFFFF" width="2.1" height="2.1"/>
			<rect x="18.3" y="14.3" fill="#FFFFFF" width="2.1" height="2.1"/>
			<rect x="18.3" y="12.2" fill="#FFFFFF" width="2.1" height="2.1"/>
			<rect x="18.3" y="10.1" fill="#FFFFFF" width="2.1" height="2.1"/>
			<rect x="18.3" y="8" fill="#FFFFFF" width="2.1" height="2.1"/>
			<rect x="18.3" y="5.9" fill="#FFFFFF" width="2.1" height="2.1"/>
			<rect x="16.2" y="50.4" fill="#FFFFFF" width="2.1" height="2.1"/>
			<rect x="16.2" y="48.3" width="2.1" height="2.1"/>
			<rect x="16.2" y="46.1" width="2.1" height="2.1"/>
			<rect x="16.2" y="44" width="2.1" height="2.1"/>
			<rect x="16.2" y="41.9" width="2.1" height="2.1"/>
			<rect x="16.2" y="39.8" width="2.1" height="2.1"/>
			<rect x="16.2" y="37.7" fill="#FFFFFF" width="2.1" height="2.1"/>
			<rect x="16.2" y="35.5" fill="#FFFFFF" width="2.1" height="2.1"/>
			<rect x="16.2" y="33.4" fill="#FFFFFF" width="2.1" height="2.1"/>
			<rect x="16.2" y="31.3" width="2.1" height="2.1"/>
			<rect x="16.2" y="29.2" fill="#FFFFFF" width="2.1" height="2.1"/>
			<rect x="16.2" y="27.1" fill="#FFFFFF" width="2.1" height="2.1"/>
			<rect x="16.2" y="24.9" fill="#FFFFFF" width="2.1" height="2.1"/>
			<rect x="16.2" y="22.8" fill="#FFFFFF" width="2.1" height="2.1"/>
			<rect x="16.2" y="20.7" width="2.1" height="2.1"/>
			<rect x="16.2" y="18.6" fill="#FFFFFF" width="2.1" height="2.1"/>
			<rect x="16.2" y="16.5" width="2.1" height="2.1"/>
			<rect x="16.2" y="14.3" width="2.1" height="2.1"/>
			<rect x="16.2" y="12.2" width="2.1" height="2.1"/>
			<rect x="16.2" y="10.1" width="2.1" height="2.1"/>
			<rect x="16.2" y="8" width="2.1" height="2.1"/>
			<rect x="16.2" y="5.9" fill="#FFFFFF" width="2.1" height="2.1"/>
			<rect x="14.1" y="50.4" fill="#FFFFFF" width="2.1" height="2.1"/>
			<rect x="14.1" y="48.3" width="2.1" height="2.1"/>
			<rect x="14.1" y="46.1" fill="#FFFFFF" width="2.1" height="2.1"/>
			<rect x="14.1" y="44" fill="#FFFFFF" width="2.1" height="2.1"/>
			<rect x="14.1" y="41.9" fill="#FFFFFF" width="2.1" height="2.1"/>
			<rect x="14.1" y="39.8" width="2.1" height="2.1"/>
			<rect x="14.1" y="37.7" fill="#FFFFFF" width="2.1" height="2.1"/>
			<rect x="14.1" y="35.5" fill="#FFFFFF" width="2.1" height="2.1"/>
			<rect x="14.1" y="33.4" fill="#FFFFFF" width="2.1" height="2.1"/>
			<rect x="14.1" y="31.3" width="2.1" height="2.1"/>
			<rect x="14.1" y="29.2" fill="#FFFFFF" width="2.1" height="2.1"/>
			<rect x="14.1" y="27.1" width="2.1" height="2.1"/>
			<rect x="14.1" y="24.9" fill="#FFFFFF" width="2.1" height="2.1"/>
			<rect x="14.1" y="22.8" fill="#FFFFFF" width="2.1" height="2.1"/>
			<rect x="14.1" y="20.7" width="2.1" height="2.1"/>
			<rect x="14.1" y="18.6" fill="#FFFFFF" width="2.1" height="2.1"/>
			<rect x="14.1" y="16.5" width="2.1" height="2.1"/>
			<rect x="14.1" y="14.3" fill="#FFFFFF" width="2.1" height="2.1"/>
			<rect x="14.1" y="12.2" fill="#FFFFFF" width="2.1" height="2.1"/>
			<rect x="14.1" y="10.1" fill="#FFFFFF" width="2.1" height="2.1"/>
			<rect x="14.1" y="8" width="2.1" height="2.1"/>
			<rect x="14.1" y="5.9" fill="#FFFFFF" width="2.1" height="2.1"/>
			<rect x="12" y="50.4" fill="#FFFFFF" width="2.1" height="2.1"/>
			<rect x="12" y="48.3" width="2.1" height="2.1"/>
			<rect x="12" y="46.1" fill="#FFFFFF" width="2.1" height="2.1"/>
			<rect x="12" y="44" width="2.1" height="2.1"/>
			<rect x="12" y="41.9" fill="#FFFFFF" width="2.1" height="2.1"/>
			<rect x="12" y="39.8" width="2.1" height="2.1"/>
			<rect x="12" y="37.7" fill="#FFFFFF" width="2.1" height="2.1"/>
			<rect x="12" y="35.5" width="2.1" height="2.1"/>
			<rect x="12" y="33.4" fill="#FFFFFF" width="2.1" height="2.1"/>
			<rect x="12" y="31.3" width="2.1" height="2.1"/>
			<rect x="12" y="29.2" fill="#FFFFFF" width="2.1" height="2.1"/>
			<rect x="12" y="27.1" width="2.1" height="2.1"/>
			<rect x="12" y="24.9" fill="#FFFFFF" width="2.1" height="2.1"/>
			<rect x="12" y="22.8" fill="#FFFFFF" width="2.1" height="2.1"/>
			<rect x="12" y="20.7" fill="#FFFFFF" width="2.1" height="2.1"/>
			<rect x="12" y="18.6" fill="#FFFFFF" width="2.1" height="2.1"/>
			<rect x="12" y="16.5" width="2.1" height="2.1"/>
			<rect x="12" y="14.3" fill="#FFFFFF" width="2.1" height="2.1"/>
			<rect x="12" y="12.2" width="2.1" height="2.1"/>
			<rect x="12" y="10.1" fill="#FFFFFF" width="2.1" height="2.1"/>
			<rect x="12" y="8" width="2.1" height="2.1"/>
			<rect x="12" y="5.9" fill="#FFFFFF" width="2.1" height="2.1"/>
			<rect x="9.8" y="50.4" fill="#FFFFFF" width="2.1" height="2.1"/>
			<rect x="9.8" y="48.3" width="2.1" height="2.1"/>
			<rect x="9.8" y="46.1" fill="#FFFFFF" width="2.1" height="2.1"/>
			<rect x="9.8" y="44" fill="#FFFFFF" width="2.1" height="2.1"/>
			<rect x="9.8" y="41.9" fill="#FFFFFF" width="2.1" height="2.1"/>
			<rect x="9.8" y="39.8" width="2.1" height="2.1"/>
			<rect x="9.8" y="37.7" fill="#FFFFFF" width="2.1" height="2.1"/>
			<rect x="9.8" y="35.5" fill="#FFFFFF" width="2.1" height="2.1"/>
			<rect x="9.8" y="33.4" width="2.1" height="2.1"/>
			<rect x="9.8" y="31.3" width="2.1" height="2.1"/>
			<rect x="9.8" y="29.2" fill="#FFFFFF" width="2.1" height="2.1"/>
			<rect x="9.8" y="27.1" width="2.1" height="2.1"/>
			<rect x="9.8" y="24.9" fill="#FFFFFF" width="2.1" height="2.1"/>
			<rect x="9.8" y="22.8" width="2.1" height="2.1"/>
			<rect x="9.8" y="20.7" width="2.1" height="2.1"/>
			<rect x="9.8" y="18.6" fill="#FFFFFF" width="2.1" height="2.1"/>
			<rect x="9.8" y="16.5" width="2.1" height="2.1"/>
			<rect x="9.8" y="14.3" fill="#FFFFFF" width="2.1" height="2.1"/>
			<rect x="9.8" y="12.2" fill="#FFFFFF" width="2.1" height="2.1"/>
			<rect x="9.8" y="10.1" fill="#FFFFFF" width="2.1" height="2.1"/>
			<rect x="9.8" y="8" width="2.1" height="2.1"/>
			<rect x="9.8" y="5.9" fill="#FFFFFF" width="2.1" height="2.1"/>
			<rect x="7.7" y="50.4" fill="#FFFFFF" width="2.1" height="2.1"/>
			<rect x="7.7" y="48.3" width="2.1" height="2.1"/>
			<rect x="7.7" y="46.1" width="2.1" height="2.1"/>
			<rect x="7.7" y="44" width="2.1" height="2.1"/>
			<rect x="7.7" y="41.9" width="2.1" height="2.1"/>
			<rect x="7.7" y="39.8" width="2.1" height="2.1"/>
			<rect x="7.7" y="37.7" fill="#FFFFFF" width="2.1" height="2.1"/>
			<rect x="7.7" y="35.5" width="2.1" height="2.1"/>
			<rect x="7.7" y="33.4" fill="#FFFFFF" width="2.1" height="2.1"/>
			<rect x="7.7" y="31.3" fill="#FFFFFF" width="2.1" height="2.1"/>
			<rect x="7.7" y="29.2" width="2.1" height="2.1"/>
			<rect x="7.7" y="27.1" width="2.1" height="2.1"/>
			<rect x="7.7" y="24.9" fill="#FFFFFF" width="2.1" height="2.1"/>
			<rect x="7.7" y="22.8" width="2.1" height="2.1"/>
			<rect x="7.7" y="20.7" width="2.1" height="2.1"/>
			<rect x="7.7" y="18.6" fill="#FFFFFF" width="2.1" height="2.1"/>
			<rect x="7.7" y="16.5" width="2.1" height="2.1"/>
			<rect x="7.7" y="14.3" width="2.1" height="2.1"/>
			<rect x="7.7" y="12.2" width="2.1" height="2.1"/>
			<rect x="7.7" y="10.1" width="2.1" height="2.1"/>
			<rect x="7.7" y="8" width="2.1" height="2.1"/>
			<rect x="7.7" y="5.9" fill="#FFFFFF" width="2.1" height="2.1"/>
			<rect x="5.6" y="50.4" fill="#FFFFFF" width="2.1" height="2.1"/>
			<rect x="5.6" y="48.3" fill="#FFFFFF" width="2.1" height="2.1"/>
			<rect x="5.6" y="46.1" fill="#FFFFFF" width="2.1" height="2.1"/>
			<rect x="5.6" y="44" fill="#FFFFFF" width="2.1" height="2.1"/>
			<rect x="5.6" y="41.9" fill="#FFFFFF" width="2.1" height="2.1"/>
			<rect x="5.6" y="39.8" fill="#FFFFFF" width="2.1" height="2.1"/>
			<rect x="5.6" y="37.7" fill="#FFFFFF" width="2.1" height="2.1"/>
			<rect x="5.6" y="35.5" fill="#FFFFFF" width="2.1" height="2.1"/>
			<rect x="5.6" y="33.4" fill="#FFFFFF" width="2.1" height="2.1"/>
			<rect x="5.6" y="31.3" fill="#FFFFFF" width="2.1" height="2.1"/>
			<rect x="5.6" y="29.2" fill="#FFFFFF" width="2.1" height="2.1"/>
			<rect x="5.6" y="27.1" fill="#FFFFFF" width="2.1" height="2.1"/>
			<rect x="5.6" y="24.9" fill="#FFFFFF" width="2.1" height="2.1"/>
			<rect x="5.6" y="22.8" fill="#FFFFFF" width="2.1" height="2.1"/>
			<rect x="5.6" y="20.7" fill="#FFFFFF" width="2.1" height="2.1"/>
			<rect x="5.6" y="18.6" fill="#FFFFFF" width="2.1" height="2.1"/>
			<rect x="5.6" y="16.5" fill="#FFFFFF" width="2.1" height="2.1"/>
			<rect x="5.6" y="14.3" fill="#FFFFFF" width="2.1" height="2.1"/>
			<rect x="5.6" y="12.2" fill="#FFFFFF" width="2.1" height="2.1"/>
			<rect x="5.6" y="10.1" fill="#FFFFFF" width="2.1" height="2.1"/>
			<rect x="5.6" y="8" fill="#FFFFFF" width="2.1" height="2.1"/>
			<rect x="5.6" y="5.9" fill="#FFFFFF" width="2.1" height="2.1"/>
		</g>
		<g>
		</g>
	</g>
</g>
<g>
	<polygon fill="#FF7555" points="1.9,10.9 0,10.9 0,0.3 10.5,0.3 10.5,2.1 1.9,2.1 	"/>
</g>
<g>
	<polygon fill="#FF7555" points="57.9,10.7 56,10.7 56,1.9 47.3,1.9 47.3,0.1 57.9,0.1 	"/>
</g>
<g>
	<polygon fill="#FF7555" points="10.5,58.2 0,58.2 0,47.6 1.9,47.6 1.9,56.3 10.5,56.3 	"/>
</g>
<g>
	<polygon fill="#FF7555" points="57.9,58.4 47.3,58.4 47.3,56.5 56,56.5 56,47.8 57.9,47.8 	"/>
</g>
</svg>
