<svg xmlns="http://www.w3.org/2000/svg" xmlns:xlink="http://www.w3.org/1999/xlink" preserveAspectRatio="xMidYMid" width="34" height="33" viewBox="0 0 34 33">
  <defs>
    <style>
      .cls-1 {
        fill: #313131;
        fill-rule: evenodd;
      }
    </style>
  </defs>
  <path d="M20.740,6.954 L11.490,6.954 L11.490,8.545 C11.490,9.424 10.799,10.136 9.948,10.136 C9.096,10.136 8.406,9.424 8.406,8.545 L8.406,6.954 L6.865,6.954 C5.162,6.954 3.781,8.379 3.781,10.136 L3.781,11.727 L28.448,11.727 L28.448,10.136 C28.448,8.379 27.067,6.954 25.365,6.954 L23.823,6.954 L23.823,8.545 C23.823,9.424 23.133,10.136 22.281,10.136 C21.430,10.136 20.740,9.424 20.740,8.545 L20.740,6.954 ZM23.823,3.773 L25.365,3.773 C28.770,3.773 31.531,6.622 31.531,10.136 L31.531,16.500 C31.531,17.379 30.841,18.091 29.990,18.091 C29.138,18.091 28.448,17.379 28.448,16.500 L28.448,14.909 L3.781,14.909 L3.781,26.045 C3.781,27.803 5.162,29.227 6.865,29.227 L17.656,29.227 C18.508,29.227 19.198,29.939 19.198,30.818 C19.198,31.697 18.508,32.409 17.656,32.409 L6.865,32.409 C3.459,32.409 0.698,29.560 0.698,26.045 L0.698,10.136 C0.698,6.622 3.459,3.773 6.865,3.773 L8.406,3.773 L8.406,2.182 C8.406,1.303 9.096,0.591 9.948,0.591 C10.799,0.591 11.490,1.303 11.490,2.182 L11.490,3.773 L20.740,3.773 L20.740,2.182 C20.740,1.303 21.430,0.591 22.281,0.591 C23.133,0.591 23.823,1.303 23.823,2.182 L23.823,3.773 ZM28.448,27.636 L28.448,30.818 C28.448,31.697 27.758,32.409 26.906,32.409 C26.055,32.409 25.365,31.697 25.365,30.818 L25.365,27.636 L22.281,27.636 C21.430,27.636 20.740,26.924 20.740,26.045 C20.740,25.167 21.430,24.454 22.281,24.454 L25.365,24.454 L25.365,21.273 C25.365,20.394 26.055,19.682 26.906,19.682 C27.758,19.682 28.448,20.394 28.448,21.273 L28.448,24.454 L31.531,24.454 C32.383,24.454 33.073,25.167 33.073,26.045 C33.073,26.924 32.383,27.636 31.531,27.636 L28.448,27.636 Z" class="cls-1"/>
</svg>
