<svg xmlns="http://www.w3.org/2000/svg" xmlns:xlink="http://www.w3.org/1999/xlink" preserveAspectRatio="xMidYMid" width="31" height="33" viewBox="0 0 31 33">
  <defs>
    <style>
      .cls-1 {
        fill: #313131;
        fill-rule: evenodd;
      }
    </style>
  </defs>
  <path d="M27.802,18.489 C27.802,17.610 28.491,16.898 29.342,16.898 C30.192,16.898 30.882,17.610 30.882,18.489 L30.882,26.045 C30.882,29.560 28.124,32.409 24.721,32.409 L6.240,32.409 C2.838,32.409 0.080,29.560 0.080,26.045 L0.080,6.954 C0.080,3.440 2.838,0.591 6.240,0.591 L22.796,0.591 C23.647,0.591 24.336,1.303 24.336,2.182 C24.336,3.060 23.647,3.773 22.796,3.773 L6.240,3.773 C4.539,3.773 3.160,5.197 3.160,6.954 L3.160,26.045 C3.160,27.803 4.539,29.227 6.240,29.227 L24.721,29.227 C26.423,29.227 27.802,27.803 27.802,26.045 L27.802,18.489 ZM14.859,19.698 L28.137,5.983 C28.738,5.361 29.713,5.361 30.315,5.983 C30.916,6.604 30.916,7.611 30.315,8.232 L15.948,23.073 C15.346,23.694 14.371,23.694 13.770,23.073 L7.236,16.324 C6.634,15.702 6.634,14.695 7.236,14.074 C7.837,13.452 8.812,13.452 9.414,14.074 L14.859,19.698 Z" class="cls-1"/>
</svg>
