<svg xmlns="http://www.w3.org/2000/svg" xmlns:xlink="http://www.w3.org/1999/xlink" preserveAspectRatio="xMidYMid" width="37" height="27" viewBox="0 0 37 27">
  <defs>
    <style>
      .cls-1 {
        fill: #313131;
        fill-rule: evenodd;
      }
    </style>
  </defs>
  <path d="M23.125,3.954 L12.333,3.954 L12.333,23.045 L23.125,23.045 L23.125,3.954 ZM26.208,3.954 L26.208,23.045 L32.375,23.045 C33.226,23.045 33.917,22.333 33.917,21.454 L33.917,19.663 C31.257,18.957 29.292,16.465 29.292,13.500 C29.292,10.535 31.257,8.043 33.917,7.337 L33.917,5.545 C33.917,4.667 33.226,3.954 32.375,3.954 L26.208,3.954 ZM9.250,3.954 L4.625,3.954 C3.774,3.954 3.083,4.667 3.083,5.545 L3.083,7.337 C5.743,8.043 7.708,10.535 7.708,13.500 C7.708,16.465 5.743,18.957 3.083,19.663 L3.083,21.454 C3.083,22.333 3.774,23.045 4.625,23.045 L9.250,23.045 L9.250,3.954 ZM32.375,26.227 L4.625,26.227 C2.071,26.227 -0.000,24.090 -0.000,21.454 L-0.000,18.273 C-0.000,17.394 0.690,16.682 1.542,16.682 C3.244,16.682 4.625,15.257 4.625,13.500 C4.625,11.743 3.244,10.318 1.542,10.318 C0.690,10.318 -0.000,9.606 -0.000,8.727 L-0.000,5.545 C-0.000,2.909 2.071,0.773 4.625,0.773 L32.375,0.773 C34.929,0.773 37.000,2.909 37.000,5.545 L37.000,8.727 C37.000,9.606 36.310,10.318 35.458,10.318 C33.755,10.318 32.375,11.743 32.375,13.500 C32.375,15.257 33.755,16.682 35.458,16.682 C36.310,16.682 37.000,17.394 37.000,18.273 L37.000,21.454 C37.000,24.090 34.929,26.227 32.375,26.227 Z" class="cls-1"/>
</svg>
