<svg xmlns="http://www.w3.org/2000/svg" xmlns:xlink="http://www.w3.org/1999/xlink" preserveAspectRatio="xMidYMid" width="35" height="35" viewBox="0 0 35 35">
  <defs>
    <style>
      .cls-1 {
        fill: #313131;
        fill-rule: evenodd;
      }
    </style>
  </defs>
  <path d="M17.500,35.000 C8.134,35.000 0.542,27.165 0.542,17.500 C0.542,7.835 8.134,-0.000 17.500,-0.000 C26.866,-0.000 34.458,7.835 34.458,17.500 C34.458,27.165 26.866,35.000 17.500,35.000 ZM17.500,31.818 C25.163,31.818 31.375,25.408 31.375,17.500 C31.375,9.592 25.163,3.182 17.500,3.182 C9.837,3.182 3.625,9.592 3.625,17.500 C3.625,25.408 9.837,31.818 17.500,31.818 ZM24.770,18.561 C25.054,17.732 25.935,17.298 26.737,17.591 C27.540,17.884 27.961,18.793 27.677,19.621 C26.165,24.035 22.110,27.045 17.500,27.045 C12.890,27.045 8.835,24.035 7.323,19.621 C7.039,18.793 7.460,17.884 8.263,17.591 C9.065,17.298 9.946,17.732 10.230,18.561 C11.309,21.713 14.207,23.864 17.500,23.864 C20.793,23.864 23.691,21.713 24.770,18.561 ZM12.875,14.318 C12.024,14.318 11.333,13.606 11.333,12.727 C11.333,11.849 12.024,11.136 12.875,11.136 C13.726,11.136 14.417,11.849 14.417,12.727 C14.417,13.606 13.726,14.318 12.875,14.318 ZM22.125,14.318 C21.274,14.318 20.583,13.606 20.583,12.727 C20.583,11.849 21.274,11.136 22.125,11.136 C22.976,11.136 23.667,11.849 23.667,12.727 C23.667,13.606 22.976,14.318 22.125,14.318 Z" class="cls-1"/>
</svg>
