<svg xmlns="http://www.w3.org/2000/svg" xmlns:xlink="http://www.w3.org/1999/xlink" preserveAspectRatio="xMidYMid" width="30" height="30" viewBox="0 0 30 30">
  <defs>
    <style>
      .cls-1 {
        fill: #0083b1;
      }

      .cls-1, .cls-2 {
        fill-rule: evenodd;
      }

      .cls-2 {
        fill: #fff;
      }
    </style>
  </defs>
  <path d="M-0.000,-0.000 L30.000,-0.000 L-0.000,30.000 L-0.000,-0.000 Z" class="cls-1"/>
  <path d="M12.938,10.702 C12.947,10.558 12.886,10.429 12.776,10.356 L10.507,8.853 L13.164,4.841 C13.278,4.669 13.270,4.449 13.144,4.314 C13.016,4.177 12.808,4.166 12.642,4.282 L5.700,9.129 C5.581,9.212 5.504,9.350 5.495,9.492 C5.486,9.635 5.547,9.766 5.657,9.838 L7.926,11.341 L5.268,15.353 C5.154,15.525 5.163,15.745 5.289,15.880 C5.308,15.900 5.329,15.918 5.351,15.933 C5.477,16.016 5.649,16.011 5.791,15.912 L12.733,11.065 C12.852,10.981 12.929,10.846 12.938,10.702 Z" class="cls-2"/>
</svg>
